<?xml version="1.0" encoding="UTF-8"?>
<svg width="132px" height="25px" viewBox="0 0 132 25" version="1.1" xmlns="http://www.w3.org/2000/svg" xmlns:xlink="http://www.w3.org/1999/xlink">
    <!-- Generator: Sketch 52.6 (67491) - http://www.bohemiancoding.com/sketch -->
    <title>OnsideLogo Copy</title>
    <desc>Created with Sketch.</desc>
    <g id="Page-1" stroke="none" stroke-width="1" fill="none" fill-rule="evenodd">
        <g id="OnsideLogo-Copy" fill="#FFFFFF">
            <g id="Group" transform="translate(27.000000, 0.000000)">
                <polygon id="Shape" points="14.2493137 24.331703 9.55110222 12.6057893 9.41686763 12.6057893 7.57114167 24.331703 0.0204446439 24.331703 4.21527633 0.679432755 11.8330907 0.679432755 16.6319781 13.0066753 16.7662127 13.0066753 18.7126146 0.679432755 26.2633117 0.679432755 22.06848 24.331703"></polygon>
                <path d="M42.9028106,7.7283438 C42.5224775,7.28291274 42.0302887,6.92100545 41.4262299,6.64261105 C40.8221713,6.36421664 40.1174464,6.22502154 39.3120348,6.22502154 C38.6856034,6.22502154 38.1207051,6.35864884 37.6173228,6.62590748 C37.1139403,6.89316609 36.8622531,7.30518364 36.8622531,7.86197243 C36.8622531,8.30740349 37.074789,8.65260734 37.4998674,8.89759444 C37.9249458,9.14258153 38.5513677,9.39870053 39.3791521,9.66595914 C40.4082891,10.0000324 41.3255499,10.3786432 42.1309617,10.8018026 C42.9363733,11.2249621 43.6187257,11.7149289 44.1780395,12.2717177 C44.7373531,12.8285065 45.1680182,13.4632363 45.4700475,14.1759259 C45.7720771,14.8886156 45.9230894,15.6903795 45.9230894,16.5812415 C45.9230894,18.0957071 45.5875063,19.3874377 44.9163299,20.4564723 C44.2451534,21.5255068 43.3894163,22.3940843 42.349093,23.0622308 C41.3087694,23.7303774 40.1621936,24.2203442 38.9093308,24.5321459 C37.6564683,24.8439476 36.4371827,24.9998462 35.2514378,24.9998462 C34.3117908,24.9998462 33.3721578,24.9218969 32.4325108,24.7659961 C31.4928639,24.6100952 30.5923822,24.387383 29.7310391,24.0978528 C28.869696,23.8083226 28.0587033,23.4519831 27.2980368,23.0288237 C26.5373702,22.6056642 25.8773899,22.126833 25.3180763,21.5923157 L30.6203434,16.7148702 C30.8888139,17.0266719 31.213211,17.3050621 31.5935444,17.5500492 C31.9738778,17.7950363 32.3709845,18.0010451 32.7848766,18.1680817 C33.1987688,18.3351184 33.6182477,18.4687457 34.0433262,18.5689676 C34.4684046,18.6691896 34.8599181,18.7192999 35.217879,18.7192999 C36.0009183,18.7192999 36.6273402,18.5912403 37.0971637,18.3351175 C37.5669872,18.0789947 37.8018953,17.7059517 37.8018953,17.2159776 C37.8018953,16.8150896 37.6061385,16.4587501 37.2146189,16.1469484 C36.8230992,15.8351467 36.0904095,15.512214 35.0165271,15.1781408 C34.1663703,14.9108821 33.3665638,14.5990851 32.6170833,14.2427403 C31.8676031,13.8863954 31.2188089,13.4576745 30.6706816,12.9565645 C30.122554,12.4554546 29.6918889,11.8541317 29.3786733,11.1525778 C29.0654577,10.4510239 28.9088521,9.59914983 28.9088521,8.59692998 C28.9088521,7.3719946 29.1605396,6.23616249 29.6639218,5.18939953 C30.1673041,4.14263657 30.883215,3.23508444 31.8116756,2.46671589 C32.7401363,1.69834733 33.847561,1.09702444 35.1339823,0.662729175 C36.4204039,0.228433906 37.8354463,0.0112895287 39.3791521,0.0112895287 C40.229309,0.0112895287 41.0682668,0.0836709878 41.8960511,0.228436077 C42.7238352,0.373201166 43.5068628,0.573642129 44.2451568,0.829764981 C44.9834508,1.08588783 45.6658034,1.39211708 46.2922346,1.74846192 C46.918666,2.10480675 47.4444129,2.50568868 47.8694914,2.95111971 L42.9028106,7.7283438 Z" id="Shape"></path>
                <polygon id="Shape" points="47.4332289 24.331703 51.6280605 0.679432755 59.4472267 0.679432755 55.2523951 24.331703"></polygon>
                <path d="M63.2449477,0.679432755 L73.0776332,0.679432755 C74.4199863,0.679432755 75.7679117,0.863170305 77.1214511,1.23065092 C78.4749902,1.59813153 79.6942756,2.182751 80.7793442,2.98452688 C81.8644128,3.78630277 82.7537082,4.82748223 83.4472572,6.10809646 C84.1408061,7.38871071 84.4875754,8.94212821 84.4875754,10.7683955 C84.4875754,12.8396498 84.1240267,14.7159999 83.3969193,16.3975022 C82.6698115,18.0790044 81.6574687,19.5043623 80.3598611,20.6736188 C79.0622536,21.8428753 77.5297571,22.7448596 75.7623255,23.3795989 C73.994894,24.0143381 72.070884,24.331703 69.9902371,24.331703 L59.0501161,24.331703 L63.2449477,0.679432755 Z M67.8089245,17.6836779 L70.3258235,17.6836779 C71.3325881,17.6836779 72.2162909,17.5110759 72.9769574,17.1658669 C73.7376236,16.8206578 74.3752318,16.3640978 74.8898006,15.7961733 C75.4043694,15.2282486 75.7902895,14.5823833 76.0475741,13.8585579 C76.3048586,13.1347324 76.4334986,12.3830788 76.4334986,11.6035745 C76.4334986,11.0022426 76.3440097,10.4343265 76.1650292,9.89980927 C75.9860491,9.36529205 75.7063965,8.90316426 75.3260631,8.51341207 C74.9457294,8.12365991 74.4591341,7.81186287 73.8662617,7.57801157 C73.2733894,7.34416024 72.5742576,7.22723638 71.7688458,7.22723638 L69.6882092,7.22723638 L67.8089245,17.6836779 Z" id="Shape" fill-rule="nonzero"></path>
                <polygon id="Shape" points="85.252433 24.331703 89.4472646 0.679432755 104.984921 0.679432755 103.843927 7.12701489 95.622057 7.12701489 95.2193531 9.39870185 103.072078 9.39870185 101.998201 15.4119909 94.1454763 15.4119909 93.7092138 17.8841208 102.904285 17.8841208 101.763291 24.331703"></polygon>
            </g>
            <path d="M3.35027468,5 L21,22.2775453 C20.0998665,22.9152934 19.1044883,23.4557487 18.0138555,23.8989179 C16.2073482,24.6329763 14.19068,25 11.9637905,25 C10.0323047,25 8.32239733,24.7386347 6.83401709,24.2158961 C5.34563683,23.6931575 4.09587065,22.9535491 3.08468103,21.9970488 C2.0734914,21.0405484 1.30658942,19.9061115 0.783952084,18.593704 C0.261314748,17.2812966 0,15.8354456 0,14.2561078 C0,12.2986186 0.352206835,10.4635001 1.05663107,8.75069718 C1.63180981,7.35215383 2.39635235,6.10192963 3.35027485,5.00000033 L3.35027468,5 Z" id="Shape"></path>
            <path d="M5,3.10971046 C5.97874104,2.31881541 7.08387708,1.6606216 8.31542324,1.13511866 C10.0889091,0.378369101 12.0575604,0 14.2214361,0 C16.1399239,0 17.8297294,0.269444663 19.2909032,0.808342073 C20.7520771,1.34723949 21.9789986,2.10971055 22.9717045,3.09577814 C23.9644103,4.08184577 24.717294,5.25135024 25.2303779,6.60432673 C25.7434619,7.95730319 26,9.44784811 26,11.0760063 C26,13.0940051 25.6598082,14.9858506 24.9794142,16.7515996 C24.3606555,18.3573937 23.5020665,19.7735156 22.4036254,21 L5.00000003,3.10971046 Z" id="Shape" fill-opacity="0.45"></path>
        </g>
    </g>
</svg>
